<?xml version="1.0" standalone="no"?>
<!DOCTYPE svg PUBLIC "-//W3C//DTD SVG 20010904//EN"
 "http://www.w3.org/TR/2001/REC-SVG-20010904/DTD/svg10.dtd">
<svg version="1.0" xmlns="http://www.w3.org/2000/svg"
 width="621.000000pt" height="621.000000pt" viewBox="0 0 621.000000 621.000000"
 preserveAspectRatio="xMidYMid meet">
<metadata>
Created by potrace 1.14, written by Peter Selinger 2001-2017
</metadata>
<g transform="translate(0.000000,621.000000) scale(0.100000,-0.100000)"
fill="#000000" stroke="none">
<path d="M2675 5200 c-57 -7 -116 -16 -177 -26 -217 -36 -469 -138 -623 -251
-143 -106 -243 -229 -334 -411 -40 -79 -42 -88 -41 -165 2 -135 2 -135 -22
-143 -13 -3 -63 -22 -113 -41 -49 -19 -117 -45 -150 -58 -33 -12 -130 -50
-215 -83 -275 -107 -633 -245 -700 -269 -36 -13 -79 -30 -95 -38 -25 -11 -142
-54 -191 -70 -9 -3 -9 -21 1 -72 14 -73 19 -98 34 -183 5 -30 12 -66 15 -80 7
-29 15 -72 21 -115 6 -38 13 -72 19 -93 3 -9 7 -35 11 -57 3 -22 8 -47 10 -55
3 -8 7 -31 9 -50 3 -19 14 -81 25 -138 12 -56 23 -117 26 -135 3 -17 8 -39 10
-47 2 -8 7 -37 11 -65 3 -27 8 -53 10 -56 2 -3 6 -21 9 -40 3 -19 15 -83 27
-144 11 -60 22 -117 23 -125 11 -59 36 -189 40 -210 4 -23 12 -61 21 -114 2
-11 7 -23 11 -26 5 -4 130 -48 278 -98 149 -51 394 -134 545 -185 151 -52 322
-110 380 -130 58 -19 278 -94 490 -167 212 -72 459 -156 550 -187 91 -31 167
-59 170 -64 3 -4 32 5 65 21 33 15 89 41 125 58 36 16 139 64 230 107 164 77
234 109 383 179 192 90 229 107 340 160 65 31 120 56 122 56 1 0 63 29 137 64
73 35 167 79 208 99 41 19 217 101 390 182 173 81 342 160 375 175 33 15 101
47 150 70 50 23 117 55 150 70 33 15 118 55 189 89 70 33 130 61 131 61 2 0
59 26 127 59 67 32 168 80 223 106 55 26 101 48 103 49 1 2 -15 56 -37 122
-46 143 -94 290 -196 609 -42 132 -103 321 -135 420 -83 255 -225 697 -251
783 -21 64 -26 72 -48 73 -15 0 -33 2 -41 4 -8 1 -33 6 -55 9 -23 4 -50 8 -62
10 -11 3 -38 7 -59 10 -22 3 -50 8 -64 11 -14 2 -41 6 -60 9 -19 3 -129 21
-245 40 -195 32 -366 60 -525 86 -36 5 -76 12 -90 14 -14 3 -59 10 -100 16
-41 7 -84 14 -95 16 -10 2 -37 6 -60 9 -22 4 -89 15 -150 25 -60 11 -128 22
-150 25 -22 4 -51 8 -64 10 -12 2 -38 19 -56 37 -52 52 -74 68 -149 108 -90
48 -219 94 -316 114 -41 8 -88 18 -105 21 -45 10 -352 13 -420 5z m1089 -335
c-5 -12 -10 -13 -20 -4 -19 15 -18 19 6 19 13 0 18 -5 14 -15z m1736 -268 c0
-2 -9 -12 -19 -21 -19 -17 -19 -17 -14 3 3 12 12 21 19 21 8 0 14 -2 14 -3z
m48 -29 c-2 -6 -13 -12 -24 -14 -19 -3 -19 -3 0 12 24 17 29 18 24 2z m-4043
-398 c3 -5 1 -10 -4 -10 -6 0 -11 5 -11 10 0 6 2 10 4 10 3 0 8 -4 11 -10z
m-1389 -539 c0 -16 -4 -17 -25 -8 l-24 12 24 6 c13 4 24 7 24 8 1 1 1 -7 1
-18z m-56 -35 c0 -3 -4 -8 -10 -11 -5 -3 -10 -1 -10 4 0 6 5 11 10 11 6 0 10
-2 10 -4z m2640 -610 c0 -2 -7 -7 -16 -10 -8 -3 -12 -2 -9 4 6 10 25 14 25 6z
m-40 -20 c0 -7 -88 -56 -102 -56 -7 0 12 13 42 30 60 32 60 32 60 26z m-60
-86 c0 -5 -2 -10 -4 -10 -3 0 -8 5 -11 10 -3 6 -1 10 4 10 6 0 11 -4 11 -10z
m155 -1820 c-3 -5 -12 -10 -18 -10 -7 0 -6 4 3 10 19 12 23 12 15 0z"/>
</g>
</svg>
