####
#
# OBJ File Generated by Meshlab
#
####
# Object square401.obj
#
# Vertices: 8
# Faces: 12
#
####
vn -1.570796 -1.570796 -1.570796
v -20.000000 -20.000000 0.000000
vn 1.570796 -1.570796 -1.570796
v 20.000000 -20.000000 0.000000
vn -1.570796 -1.570796 1.570796
v -20.000000 -20.000000 3.000000
vn 1.570796 -1.570796 1.570796
v 20.000000 -20.000000 3.000000
vn -1.570796 1.570796 -1.570796
v -20.000000 20.000000 0.000000
vn 1.570796 1.570796 -1.570796
v 20.000000 20.000000 0.000000
vn -1.570796 1.570796 1.570796
v -20.000000 20.000000 3.000000
vn 1.570796 1.570796 1.570796
v 20.000000 20.000000 3.000000
# 8 vertices, 0 vertices normals

f 3//3 7//7 1//1
f 7//7 5//5 1//1
f 2//2 3//3 1//1
f 5//5 2//2 1//1
f 4//4 3//3 2//2
f 6//6 4//4 2//2
f 5//5 6//6 2//2
f 4//4 8//8 3//3
f 8//8 7//7 3//3
f 6//6 8//8 4//4
f 7//7 8//8 5//5
f 8//8 6//6 5//5
# 12 faces, 0 coords texture

# End of File
